<svg xmlns="http://www.w3.org/2000/svg" viewBox="0 0 117.13 117.13"><defs><style>.cls-1{fill:#2da9e0;}</style></defs><g id="Layer_2" data-name="Layer 2"><g id="ASSETS"><path class="cls-1" d="M48.8,38,30.85,76.45a1.5,1.5,0,0,1-1.54,1H25.25a1.22,1.22,0,0,1-.91-.34,1.68,1.68,0,0,1-.46-.86L16.62,38h3.83l5.66,32.29c.15.73.28,1.44.4,2.15s.21,1.42.29,2.14h1.48c.27-.72.56-1.47.89-2.23s.66-1.5,1-2.23L44.86,38Z"/><path class="cls-1" d="M90.5,38.28c1.91,0,3.82.14,5.75.29a51.25,51.25,0,0,1,5.57.74l-.4,2.75c-1.45-.12-2.77-.2-4-.26s-2.39-.1-3.57-.12l-3.78,0c-1.29,0-2.48,0-3.57.14a8.11,8.11,0,0,0-2.83.71,4.65,4.65,0,0,0-2,1.92,9.56,9.56,0,0,0-1.09,3.8,11.06,11.06,0,0,0,0,3.29,3.56,3.56,0,0,0,1.26,2.11,11.27,11.27,0,0,0,3,1.63l8,3.15A14.16,14.16,0,0,1,97.42,61a6.5,6.5,0,0,1,2,3.4,13.78,13.78,0,0,1,.06,4.89,12.92,12.92,0,0,1-2.37,6.34,8.33,8.33,0,0,1-4.72,2.8A33.57,33.57,0,0,1,85,79.1c-1.14,0-2.73-.06-4.75-.17a67.32,67.32,0,0,1-6.86-.8l.46-2.75,5,.2q2,.09,3.48.12l3,0a29.37,29.37,0,0,0,5.52-.52,5.59,5.59,0,0,0,3.32-1.91,9.35,9.35,0,0,0,1.62-4.43,10,10,0,0,0,0-3.49,3.6,3.6,0,0,0-1.34-2.09,11.61,11.61,0,0,0-3.06-1.57l-8.11-3.2A12.94,12.94,0,0,1,78.93,56a6.83,6.83,0,0,1-2-3.46,13.35,13.35,0,0,1-.12-4.69,14.75,14.75,0,0,1,1.57-5.2,7.15,7.15,0,0,1,2.86-2.86,11.78,11.78,0,0,1,4.06-1.2A42.52,42.52,0,0,1,90.5,38.28Z"/><path class="cls-1" d="M58.57,117.13a58.43,58.43,0,0,1-19.26-3.24.94.94,0,1,1,.61-1.77A56.7,56.7,0,0,0,89,10.73a.94.94,0,0,1,1-1.59,58.57,58.57,0,0,1-31.43,108Z"/><path class="cls-1" d="M26.53,107.41a1,1,0,0,1-.53-.15A58.58,58.58,0,0,1,78.52,3.49a.94.94,0,1,1-.64,1.76A56.7,56.7,0,0,0,27.05,105.69a1,1,0,0,1,.26,1.31A.93.93,0,0,1,26.53,107.41Z"/><path class="cls-1" d="M39.61,113.94a.88.88,0,0,1-.39-.08.94.94,0,0,1-.46-1.25l25-53.41h-11a.92.92,0,0,1-.79-.44.91.91,0,0,1-.06-.9L77.35,4a.94.94,0,0,1,1.7.8L54.3,57.32h11a.94.94,0,0,1,.79.44.91.91,0,0,1,.06.9L40.47,113.4A.94.94,0,0,1,39.61,113.94Z"/></g></g></svg>