<svg xmlns="http://www.w3.org/2000/svg" viewBox="0 0 44 44"><defs><style>.cls-1,.cls-2{fill:none;stroke:#29aae1;stroke-miterlimit:10;}.cls-2{stroke-linecap:round;}.cls-3{fill:#29aae1;}</style></defs><g id="Layer_2" data-name="Layer 2"><g id="MAIN_MENU_ASSETS" data-name="MAIN MENU ASSETS"><g id="Layer_1-2" data-name="Layer 1-2"><circle class="cls-1" cx="22" cy="22" r="21.5"/><path class="cls-1" d="M35.34,22a13.38,13.38,0,1,1-3.55-9A13.37,13.37,0,0,1,35.34,22Z"/><path class="cls-1" d="M8.86,20.29a19.24,19.24,0,0,1,26.29,0"/><path class="cls-1" d="M8.86,23.55a19.22,19.22,0,0,0,26.29,0"/><circle class="cls-1" cx="22.09" cy="22" r="6.38"/><path class="cls-2" d="M24.48,20.89a3.06,3.06,0,0,1-4.95,3.29"/><polygon class="cls-3" points="33.34 7.43 32.42 7.21 32.64 6.3 33.56 6.51 33.34 7.43"/><polygon class="cls-3" points="32.68 10.17 31.77 9.96 31.99 9.05 32.91 9.25 32.68 10.17"/><rect class="cls-3" x="37.55" y="11.12" width="0.95" height="0.94" transform="translate(-0.39 21.83) rotate(-31.88)"/><rect class="cls-3" x="35.14" y="12.62" width="0.95" height="0.94" transform="translate(-1.54 20.78) rotate(-31.88)"/><polygon class="cls-3" points="10.21 7.43 11.13 7.21 10.9 6.3 9.99 6.51 10.21 7.43"/><polygon class="cls-3" points="10.86 10.17 11.78 9.96 11.56 9.05 10.64 9.25 10.86 10.17"/><rect class="cls-3" x="5.06" y="11.12" width="0.94" height="0.95" transform="matrix(0.53, -0.85, 0.85, 0.53, -7.23, 10.16)"/><rect class="cls-3" x="7.46" y="12.61" width="0.94" height="0.95" transform="translate(-7.37 12.91) rotate(-58.12)"/><polygon class="cls-3" points="33.34 36.6 32.42 36.81 32.64 37.73 33.56 37.51 33.34 36.6"/><polygon class="cls-3" points="32.68 33.86 31.77 34.06 31.99 34.98 32.91 34.77 32.68 33.86"/><rect class="cls-3" x="37.55" y="31.96" width="0.94" height="0.95" transform="translate(-9.6 47.59) rotate(-58.12)"/><rect class="cls-3" x="35.14" y="30.46" width="0.94" height="0.95" transform="matrix(0.53, -0.85, 0.85, 0.53, -9.46, 44.84)"/><polygon class="cls-3" points="10.21 36.6 11.13 36.81 10.9 37.73 9.99 37.51 10.21 36.6"/><polygon class="cls-3" points="10.86 33.86 11.78 34.06 11.56 34.98 10.64 34.77 10.86 33.86"/><rect class="cls-3" x="5.05" y="31.97" width="0.95" height="0.94" transform="translate(-16.3 7.81) rotate(-31.88)"/><rect class="cls-3" x="7.46" y="30.47" width="0.95" height="0.94" transform="translate(-15.14 8.86) rotate(-31.88)"/></g></g></g></svg>