<svg xmlns="http://www.w3.org/2000/svg" viewBox="0 0 44 44"><defs><style>.cls-1{fill:none;stroke:#29aae1;stroke-miterlimit:10;}.cls-2{fill:#29aae1;}</style></defs><g id="Layer_2" data-name="Layer 2"><g id="MAIN_MENU_ASSETS" data-name="MAIN MENU ASSETS"><circle class="cls-1" cx="22" cy="22" r="21.5"/><polygon class="cls-2" points="33.34 7.43 32.42 7.21 32.64 6.3 33.56 6.51 33.34 7.43"/><polygon class="cls-2" points="32.68 10.17 31.77 9.96 31.99 9.05 32.91 9.25 32.68 10.17"/><rect class="cls-2" x="37.55" y="11.12" width="0.95" height="0.94" transform="translate(-0.39 21.83) rotate(-31.88)"/><rect class="cls-2" x="35.14" y="12.62" width="0.95" height="0.94" transform="translate(-1.54 20.78) rotate(-31.88)"/><polygon class="cls-2" points="10.21 7.43 11.13 7.21 10.9 6.3 9.99 6.51 10.21 7.43"/><polygon class="cls-2" points="10.86 10.17 11.78 9.96 11.56 9.05 10.64 9.25 10.86 10.17"/><rect class="cls-2" x="5.06" y="11.12" width="0.94" height="0.95" transform="translate(-7.23 10.16) rotate(-58.12)"/><rect class="cls-2" x="7.46" y="12.61" width="0.94" height="0.95" transform="translate(-7.37 12.91) rotate(-58.12)"/><polygon class="cls-2" points="33.34 36.6 32.42 36.81 32.64 37.73 33.56 37.51 33.34 36.6"/><polygon class="cls-2" points="32.68 33.86 31.77 34.06 31.99 34.98 32.91 34.77 32.68 33.86"/><rect class="cls-2" x="37.55" y="31.96" width="0.94" height="0.95" transform="matrix(0.53, -0.85, 0.85, 0.53, -9.6, 47.59)"/><rect class="cls-2" x="35.14" y="30.46" width="0.94" height="0.95" transform="translate(-9.46 44.84) rotate(-58.12)"/><polygon class="cls-2" points="10.21 36.6 11.13 36.81 10.9 37.73 9.99 37.51 10.21 36.6"/><polygon class="cls-2" points="10.86 33.86 11.78 34.06 11.56 34.98 10.64 34.77 10.86 33.86"/><rect class="cls-2" x="5.05" y="31.97" width="0.95" height="0.94" transform="translate(-16.3 7.81) rotate(-31.88)"/><rect class="cls-2" x="7.46" y="30.47" width="0.95" height="0.94" transform="translate(-15.14 8.86) rotate(-31.88)"/><polygon class="cls-2" points="16.07 13.12 11.59 13.12 9.36 16.99 11.59 20.86 16.07 20.86 18.3 16.99 16.07 13.12"/><polygon class="cls-2" points="23.81 17.42 19.34 17.42 17.1 21.29 19.34 25.17 23.81 25.17 26.05 21.29 23.81 17.42"/><polygon class="cls-2" points="34.83 17.42 39.3 17.42 41.54 21.29 39.3 25.17 34.83 25.17 32.59 21.29 34.83 17.42"/><polygon class="cls-2" points="11.59 21.72 16.07 21.72 18.3 25.6 16.07 29.47 11.59 29.47 9.36 25.6 11.59 21.72"/><polygon class="cls-2" points="19.34 26.03 23.81 26.03 26.05 29.9 23.81 33.77 19.34 33.77 17.1 29.9 19.34 26.03"/><polygon class="cls-2" points="27.08 21.72 31.56 21.72 33.79 25.6 31.56 29.47 27.08 29.47 24.85 25.6 27.08 21.72"/></g></g></svg>