<?xml version="1.0" encoding="utf-8"?>
<!-- Generator: Adobe Illustrator 26.0.1, SVG Export Plug-In . SVG Version: 6.00 Build 0)  -->
<svg version="1.1" id="Layer_1" xmlns="http://www.w3.org/2000/svg" xmlns:xlink="http://www.w3.org/1999/xlink" x="0px" y="0px"
	 viewBox="0 0 34 34" style="enable-background:new 0 0 34 34;" xml:space="preserve">
<style type="text/css">
	.st0{fill:none;}
	.st1{fill:none;stroke:#FFFFFF;stroke-linecap:round;stroke-linejoin:round;}
	.st2{fill:#FFFFFF;}
</style>
<g id="Layer_2_00000106146727012588251780000008684828447573301673_">
	<g id="ASSETS">
		<rect class="st0" width="34" height="34"/>
		<g>
			<line class="st1" x1="19.9" y1="17" x2="26.9" y2="17"/>
			<path class="st2" d="M9.9,13.1H7.9c-0.7,0-0.9,0.2-0.9,0.9v6c0,0.7,0.2,0.9,0.9,0.9h1.9V13.1L9.9,13.1z"/>
			<path class="st2" d="M15.9,9.7L15.9,9.7c0-0.3-0.3-0.6-0.6-0.6c-0.2,0-0.3,0.1-0.4,0.2l0,0c-1.1,1-2.2,2.1-3.3,3.2
				c-0.3,0.3-0.7,0.5-1.1,0.6v7.8c0.4,0.1,0.8,0.3,1.1,0.6c1.1,1.1,2.2,2.1,3.3,3.2l0,0c0.2,0.2,0.6,0.2,0.8,0
				c0.1-0.1,0.2-0.3,0.2-0.4l0,0c0-2.4,0-4.9,0-7.3S15.9,12.1,15.9,9.7z"/>
		</g>
	</g>
</g>
</svg>
