<svg xmlns="http://www.w3.org/2000/svg" viewBox="0 0 44 44"><defs><style>.cls-1,.cls-4{fill:none;}.cls-1{stroke:#2fa8df;stroke-linecap:round;stroke-linejoin:round;}.cls-2,.cls-3{fill:#2fa8df;}.cls-3{fill-rule:evenodd;}.cls-4{stroke:#29aae1;stroke-miterlimit:10;}</style></defs><g id="Layer_2" data-name="Layer 2"><g id="MAIN_MENU_ASSETS" data-name="MAIN MENU ASSETS"><ellipse class="cls-1" cx="22" cy="2.95" rx="0.85" ry="0.87"/><g id="b"><g id="c"><path class="cls-2" d="M21.89,34.72h0A8,8,0,1,1,27.5,32.4,7.87,7.87,0,0,1,21.89,34.72Zm0-15.32a7.31,7.31,0,0,0,0,14.61h0A7.2,7.2,0,0,0,27,31.9a7.33,7.33,0,0,0-5.15-12.5Z"/><path class="cls-2" d="M18.68,25.94a3.92,3.92,0,0,1-2.07-.52,3.57,3.57,0,0,1-1.53-2.64.35.35,0,0,1,.3-.41.36.36,0,0,1,.41.3A2.9,2.9,0,0,0,17,24.81c.9.56,2.31.55,4.19,0a15.87,15.87,0,0,0,1.52-.61c2.13-.92,5.05-2.18,6.33-.91a.36.36,0,0,1,0,.51.35.35,0,0,1-.5,0c-.94-.94-3.71.26-5.55,1.05a17,17,0,0,1-1.59.64A9.18,9.18,0,0,1,18.68,25.94Z"/><path class="cls-2" d="M18.08,28.22a4.84,4.84,0,0,1-2.67-.66A3.19,3.19,0,0,1,14,25.4a.37.37,0,0,1,.29-.42.36.36,0,0,1,.42.29A2.47,2.47,0,0,0,15.8,27c1,.66,2.74.72,5.05.16.4-.1.95-.27,1.59-.47,2.41-.77,5.72-1.82,7.13-.74a.37.37,0,0,1,.06.51.36.36,0,0,1-.5.06c-1.11-.85-4.47.22-6.48.85-.65.21-1.21.39-1.63.49A13,13,0,0,1,18.08,28.22Z"/><path class="cls-2" d="M17.23,30.76a3,3,0,0,1-3-1.58.36.36,0,0,1,.13-.49.37.37,0,0,1,.49.14c.47.83,1.05,1.86,5.87.67.41-.11.93-.28,1.5-.47,2.5-.81,5.62-1.81,7-.72a.36.36,0,1,1-.44.56c-1.09-.85-4.25.17-6.34.85-.59.19-1.12.36-1.54.47A15.58,15.58,0,0,1,17.23,30.76Z"/></g></g><path class="cls-2" d="M15.74,36.7a.36.36,0,0,1-.35-.36V31.47a.36.36,0,1,1,.71,0v4.87A.36.36,0,0,1,15.74,36.7Z"/><path class="cls-2" d="M27.87,36.7a.36.36,0,0,1-.36-.36V31.47a.36.36,0,0,1,.72,0v4.87A.36.36,0,0,1,27.87,36.7Z"/><path class="cls-2" d="M7,34.64a1.17,1.17,0,0,1-.86-.37,1.24,1.24,0,0,1,0-1.73A1.2,1.2,0,0,1,7,32.18H7a1.22,1.22,0,0,1,.86.36,1.26,1.26,0,0,1,0,1.73A1.19,1.19,0,0,1,7,34.64ZM7,32.9a.5.5,0,0,0-.35.14.54.54,0,0,0,0,.73.49.49,0,0,0,.69,0h0a.52.52,0,0,0,0-.73A.48.48,0,0,0,7,32.9Z"/><path class="cls-2" d="M37.13,34.64a1.17,1.17,0,0,1-.86-.37h0a1.24,1.24,0,0,1,0-1.73,1.2,1.2,0,0,1,.86-.36h0a1.18,1.18,0,0,1,.85.36,1.24,1.24,0,0,1,0,1.73A1.15,1.15,0,0,1,37.13,34.64Zm0-1.74a.5.5,0,0,0-.35.14.52.52,0,0,0,0,.73h0a.49.49,0,0,0,.69,0,.52.52,0,0,0,0-.73A.48.48,0,0,0,37.13,32.9Z"/><path class="cls-2" d="M22,16.38h0a5.53,5.53,0,1,1,3.91-1.61A5.45,5.45,0,0,1,22,16.38ZM22,6a4.84,4.84,0,0,0,0,9.67h0a4.74,4.74,0,0,0,3.37-1.4A4.84,4.84,0,0,0,22,6Z"/><path class="cls-3" d="M17.71,3.82l-.11-.27-.45.2.12.27Z"/><polygon class="cls-3" points="18.52 3.52 18.43 3.24 17.97 3.41 18.07 3.69 18.52 3.52"/><polygon class="cls-3" points="19.34 3.29 19.28 3.01 18.8 3.14 18.88 3.42 19.34 3.29"/><polygon class="cls-3" points="20.19 3.13 20.15 2.85 19.66 2.93 19.71 3.22 20.19 3.13"/><path class="cls-3" d="M15.46,5.07l-.17-.23c-.13.09-.28.18-.4.28l.18.23C15.19,5.25,15.33,5.17,15.46,5.07Z"/><path class="cls-3" d="M16.18,4.6,16,4.35a3,3,0,0,0-.42.26l.16.24C15.9,4.76,16,4.68,16.18,4.6Z"/><path class="cls-3" d="M16.92,4.18l-.13-.26c-.15.07-.29.16-.43.24l.14.25A4.36,4.36,0,0,1,16.92,4.18Z"/><polygon class="cls-3" points="13.53 6.79 13.31 6.59 12.99 6.97 13.21 7.15 13.53 6.79"/><polygon class="cls-3" points="14.13 6.17 13.93 5.96 13.57 6.31 13.79 6.51 14.13 6.17"/><polygon class="cls-3" points="14.77 5.6 14.58 5.38 14.21 5.69 14.4 5.91 14.77 5.6"/><path class="cls-3" d="M12,8.89l-.26-.15c-.08.14-.15.29-.22.44l.26.13C11.87,9.17,11.94,9,12,8.89Z"/><polygon class="cls-3" points="12.47 8.15 12.22 7.99 11.97 8.41 12.22 8.56 12.47 8.15"/><polygon class="cls-3" points="12.97 7.45 12.74 7.28 12.45 7.67 12.69 7.84 12.97 7.45"/><polygon class="cls-3" points="11.01 11.27 10.73 11.18 10.59 11.65 10.87 11.73 11.01 11.27"/><path class="cls-3" d="M11.29,10.45l-.27-.1a3.61,3.61,0,0,0-.17.46l.27.09A4.13,4.13,0,0,1,11.29,10.45Z"/><path class="cls-3" d="M11.62,9.66l-.26-.12a3.07,3.07,0,0,0-.2.45l.27.11C11.49,10,11.55,9.8,11.62,9.66Z"/><polygon class="cls-3" points="10.52 13.81 10.23 13.78 10.21 14.28 10.5 14.29 10.52 13.81"/><polygon class="cls-3" points="10.63 12.95 10.34 12.91 10.28 13.39 10.56 13.43 10.63 12.95"/><polygon class="cls-3" points="10.79 12.11 10.51 12.04 10.4 12.52 10.69 12.57 10.79 12.11"/><polygon class="cls-3" points="10.6 16.39 10.31 16.43 10.38 16.92 10.67 16.87 10.6 16.39"/><polygon class="cls-3" points="10.52 15.53 10.23 15.55 10.27 16.04 10.55 16.01 10.52 15.53"/><path class="cls-3" d="M10.49,14.67H10.2a4.17,4.17,0,0,0,0,.5l.29,0A3.85,3.85,0,0,1,10.49,14.67Z"/><path class="cls-3" d="M11.22,18.9l-.28.1c.05.16.12.31.18.46l.27-.11C11.33,19.2,11.27,19.06,11.22,18.9Z"/><path class="cls-3" d="M11,18.08l-.28.08c.05.16.09.32.14.47l.28-.09C11,18.39,11,18.24,11,18.08Z"/><path class="cls-3" d="M10.75,17.25l-.29.06c0,.16.07.32.11.48l.28-.07C10.81,17.56,10.78,17.4,10.75,17.25Z"/><path class="cls-3" d="M33.2,17.81l.28.08a4.15,4.15,0,0,0,.11-.48l-.28-.06A3.43,3.43,0,0,1,33.2,17.81Z"/><path class="cls-3" d="M33,18.63l.27.09a3.53,3.53,0,0,0,.15-.46l-.28-.08C33.06,18.33,33,18.48,33,18.63Z"/><path class="cls-3" d="M32.66,19.42l.26.12a4.22,4.22,0,0,0,.18-.45L32.83,19C32.78,19.13,32.72,19.28,32.66,19.42Z"/><polygon class="cls-3" points="33.58 15.28 33.87 15.31 33.89 14.81 33.6 14.81 33.58 15.28"/><polygon class="cls-3" points="33.52 16.14 33.8 16.17 33.84 15.68 33.55 15.66 33.52 16.14"/><path class="cls-3" d="M33.39,17l.29.05c0-.16,0-.32.07-.48l-.29,0C33.44,16.66,33.42,16.82,33.39,17Z"/><polygon class="cls-3" points="33.43 12.73 33.71 12.68 33.61 12.21 33.33 12.27 33.43 12.73"/><polygon class="cls-3" points="33.54 13.58 33.82 13.55 33.76 13.07 33.48 13.11 33.54 13.58"/><polygon class="cls-3" points="33.59 14.43 33.88 14.42 33.85 13.93 33.56 13.95 33.59 14.43"/><path class="cls-3" d="M32.72,10.27l.27-.1c-.06-.15-.11-.31-.18-.45l-.27.12C32.61,10,32.66,10.13,32.72,10.27Z"/><path class="cls-3" d="M33,11.08l.28-.09a2.27,2.27,0,0,0-.16-.46l-.27.1A3,3,0,0,1,33,11.08Z"/><path class="cls-3" d="M33.25,11.89l.28-.07a4.12,4.12,0,0,0-.13-.47l-.28.08A4.61,4.61,0,0,1,33.25,11.89Z"/><polygon class="cls-3" points="31.52 8.02 31.76 7.86 31.48 7.46 31.24 7.63 31.52 8.02"/><polygon class="cls-3" points="31.97 8.74 32.22 8.6 31.98 8.18 31.73 8.33 31.97 8.74"/><polygon class="cls-3" points="32.37 9.49 32.63 9.36 32.42 8.93 32.16 9.06 32.37 9.49"/><path class="cls-3" d="M29.86,6.08l.2-.22c-.11-.11-.24-.21-.36-.32l-.19.22Z"/><polygon class="cls-3" points="30.46 6.68 30.68 6.49 30.33 6.14 30.13 6.34 30.46 6.68"/><polygon class="cls-3" points="31.01 7.33 31.24 7.15 30.93 6.78 30.71 6.97 31.01 7.33"/><path class="cls-3" d="M27.82,4.55,28,4.3a4.49,4.49,0,0,0-.42-.24l-.14.25C27.55,4.38,27.68,4.47,27.82,4.55Z"/><path class="cls-3" d="M28.54,5l.16-.24a3.51,3.51,0,0,0-.4-.27l-.16.24A3.51,3.51,0,0,1,28.54,5Z"/><path class="cls-3" d="M29.22,5.51l.18-.22c-.12-.11-.26-.2-.39-.3l-.17.24C29,5.32,29.1,5.41,29.22,5.51Z"/><polygon class="cls-3" points="25.49 3.5 25.58 3.23 25.11 3.09 25.04 3.37 25.49 3.5"/><polygon class="cls-3" points="26.29 3.79 26.4 3.52 25.95 3.35 25.85 3.62 26.29 3.79"/><polygon class="cls-3" points="27.07 4.14 27.19 3.88 26.76 3.67 26.64 3.93 27.07 4.14"/><polygon class="cls-3" points="11.37 36.68 11.25 36.95 11.7 37.13 11.8 36.86 11.37 36.68"/><polygon class="cls-3" points="10.6 36.31 10.47 36.57 10.9 36.79 11.03 36.52 10.6 36.31"/><polygon class="cls-3" points="9.87 35.89 9.72 36.13 10.13 36.38 10.28 36.13 9.87 35.89"/><polygon class="cls-3" points="13.79 37.43 13.74 37.72 14.21 37.8 14.26 37.51 13.79 37.43"/><polygon class="cls-3" points="12.97 37.24 12.89 37.52 13.36 37.64 13.42 37.36 12.97 37.24"/><polygon class="cls-3" points="12.16 36.99 12.06 37.27 12.52 37.42 12.61 37.14 12.16 36.99"/><path class="cls-3" d="M16.32,37.62v.29c.16,0,.33,0,.49,0l0-.29C16.64,37.62,16.48,37.61,16.32,37.62Z"/><path class="cls-3" d="M15.48,37.62l0,.29c.17,0,.33,0,.49,0v-.29C15.79,37.64,15.63,37.62,15.48,37.62Z"/><path class="cls-3" d="M14.63,37.56l0,.29c.16,0,.32,0,.48,0l0-.29C15,37.6,14.79,37.57,14.63,37.56Z"/><path class="cls-3" d="M18.83,37.25l.08.28.46-.14-.09-.28Z"/><path class="cls-3" d="M18,37.43l0,.29.47-.1-.06-.29A2.52,2.52,0,0,1,18,37.43Z"/><path class="cls-3" d="M17.17,37.56l0,.29.48-.07,0-.28Z"/><path class="cls-3" d="M21.2,36.32l.13.26c.15-.07.28-.16.42-.24l-.14-.25Z"/><path class="cls-3" d="M20.43,36.69l.12.26a4.28,4.28,0,0,0,.44-.2l-.13-.26Z"/><path class="cls-3" d="M19.65,37l.09.28c.16-.05.3-.11.45-.17l-.1-.27C19.94,36.88,19.8,37,19.65,37Z"/><polygon class="cls-3" points="22.64 35.42 22.81 35.66 23.19 35.37 23.01 35.14 22.64 35.42"/><path class="cls-3" d="M21.94,35.9l.15.24.41-.26-.17-.24Z"/><polygon class="cls-3" points="15.23 14.04 15.21 13.75 14.72 13.78 14.75 14.07 15.23 14.04"/><path class="cls-3" d="M16.09,14v-.29H15.6V14Z"/><polygon class="cls-3" points="16.95 14.07 16.97 13.78 16.48 13.74 16.47 14.03 16.95 14.07"/><path class="cls-3" d="M12.68,14.48l-.08-.28c-.16,0-.31.11-.47.16l.09.27Z"/><polygon class="cls-3" points="13.52 14.27 13.46 13.99 12.98 14.1 13.05 14.38 13.52 14.27"/><path class="cls-3" d="M14.36,14.12l0-.29-.48.08.05.29Z"/><polygon class="cls-3" points="10.3 15.49 10.16 15.24 9.73 15.49 9.89 15.74 10.3 15.49"/><path class="cls-3" d="M11.07,15.1,11,14.84a3.74,3.74,0,0,0-.45.22l.14.25C10.78,15.24,10.92,15.16,11.07,15.1Z"/><path class="cls-3" d="M11.86,14.76l-.1-.27-.46.18.11.27Z"/><polygon class="cls-3" points="8.21 17.02 8.02 16.81 7.94 16.88 7.95 16.87 7.67 17.14 7.86 17.35 8.13 17.1 8.14 17.09 8.21 17.02"/><polygon class="cls-3" points="8.87 16.46 8.69 16.23 8.31 16.55 8.5 16.77 8.87 16.46"/><polygon class="cls-3" points="9.56 15.95 9.4 15.71 9 15.99 9.17 16.23 9.56 15.95"/><path class="cls-3" d="M6.5,19l-.23-.16c-.1.13-.18.27-.27.41l.24.16C6.33,19.23,6.41,19.09,6.5,19Z"/><polygon class="cls-3" points="7.02 18.27 6.8 18.09 6.5 18.48 6.73 18.66 7.02 18.27"/><polygon class="cls-3" points="7.59 17.63 7.38 17.43 7.05 17.8 7.27 17.99 7.59 17.63"/><path class="cls-3" d="M5.27,21.24,5,21.13l-.19.45.27.1C5.14,21.53,5.21,21.39,5.27,21.24Z"/><path class="cls-3" d="M5.62,20.45l-.26-.13c-.07.15-.15.29-.21.45l.26.11C5.47,20.73,5.55,20.59,5.62,20.45Z"/><path class="cls-3" d="M6,19.7l-.24-.15a3,3,0,0,0-.25.43l.26.13A3.3,3.3,0,0,1,6,19.7Z"/><polygon class="cls-3" points="4.54 23.72 4.26 23.67 4.18 24.16 4.47 24.2 4.54 23.72"/><polygon class="cls-3" points="4.72 22.88 4.44 22.81 4.33 23.29 4.61 23.35 4.72 22.88"/><polygon class="cls-3" points="4.96 22.05 4.69 21.96 4.54 22.43 4.82 22.51 4.96 22.05"/><path class="cls-3" d="M4.36,26.31H4.07c0,.17,0,.33,0,.49l.29,0C4.39,26.63,4.37,26.47,4.36,26.31Z"/><polygon class="cls-3" points="4.36 25.45 4.07 25.44 4.07 25.93 4.36 25.93 4.36 25.45"/><polygon class="cls-3" points="4.42 24.59 4.13 24.56 4.1 25.05 4.38 25.07 4.42 24.59"/><path class="cls-3" d="M4.75,28.87,4.47,29a4.12,4.12,0,0,0,.13.47l.28-.08A3.62,3.62,0,0,1,4.75,28.87Z"/><path class="cls-3" d="M4.56,28l-.28,0a2.66,2.66,0,0,0,.1.49l.28-.07C4.62,28.35,4.59,28.19,4.56,28Z"/><path class="cls-3" d="M4.43,27.18l-.28,0a3.86,3.86,0,0,0,.06.49l.29,0C4.48,27.5,4.44,27.34,4.43,27.18Z"/><polygon class="cls-3" points="5.67 31.29 5.42 31.43 5.65 31.86 5.9 31.72 5.67 31.29"/><polygon class="cls-3" points="5.31 30.51 5.04 30.62 5.24 31.08 5.5 30.95 5.31 30.51"/><polygon class="cls-3" points="5 29.7 4.73 29.8 4.89 30.27 5.16 30.16 5 29.7"/><polygon class="cls-3" points="32.81 36.87 32.69 36.6 32.26 36.78 32.36 37.05 32.81 36.87"/><polygon class="cls-3" points="33.58 36.49 33.45 36.23 33.03 36.45 33.15 36.71 33.58 36.49"/><polygon class="cls-3" points="34.33 36.06 34.17 35.82 33.77 36.06 33.91 36.31 34.33 36.06"/><polygon class="cls-3" points="30.34 37.63 30.28 37.34 29.82 37.43 29.86 37.72 30.34 37.63"/><polygon class="cls-3" points="31.18 37.44 31.1 37.16 30.65 37.27 30.71 37.56 31.18 37.44"/><polygon class="cls-3" points="32 37.18 31.9 36.91 31.46 37.06 31.54 37.34 32 37.18"/><path class="cls-3" d="M27.76,37.83v-.29l-.47,0,0,.29C27.44,37.82,27.6,37.82,27.76,37.83Z"/><path class="cls-3" d="M28.62,37.82v-.29l-.47,0v.29A3.85,3.85,0,0,0,28.62,37.82Z"/><path class="cls-3" d="M29.48,37.76l0-.29-.47.05,0,.29Z"/><path class="cls-3" d="M25.2,37.44l.08-.28a3.81,3.81,0,0,1-.45-.13l-.09.28A4.61,4.61,0,0,0,25.2,37.44Z"/><path class="cls-3" d="M26.05,37.64l.05-.29a3.41,3.41,0,0,1-.46-.1l-.07.29Z"/><path class="cls-3" d="M26.89,37.76l0-.29a3.78,3.78,0,0,1-.47-.06l0,.29Z"/><path class="cls-3" d="M22.8,36.5l.13-.25c-.14-.07-.27-.16-.41-.24l-.14.25C22.52,36.34,22.65,36.43,22.8,36.5Z"/><path class="cls-3" d="M23.57,36.88l.12-.27a3.23,3.23,0,0,1-.42-.2l-.13.26C23.28,36.74,23.42,36.82,23.57,36.88Z"/><path class="cls-3" d="M24.37,37.19l.1-.27L24,36.75l-.1.27A3.34,3.34,0,0,0,24.37,37.19Z"/><polygon class="cls-3" points="21.33 35.59 21.5 35.36 21.13 35.07 20.95 35.3 21.33 35.59"/><path class="cls-3" d="M22,36.07l.16-.25-.4-.25-.16.24Z"/><path class="cls-3" d="M29.49,13.89l0,.29a4.46,4.46,0,0,1,.51.07L30,14A4.51,4.51,0,0,0,29.49,13.89Z"/><path class="cls-3" d="M28.54,13.82v.29a4.41,4.41,0,0,1,.52,0l0-.29A4.58,4.58,0,0,0,28.54,13.82Z"/><polygon class="cls-3" points="27.59 13.82 27.61 14.12 28.13 14.1 28.13 13.81 27.59 13.82"/><path class="cls-3" d="M32.27,14.56l-.1.27c.16.07.32.12.48.2l.11-.27Z"/><path class="cls-3" d="M31.37,14.26l-.08.28.49.15.09-.27A4.83,4.83,0,0,0,31.37,14.26Z"/><polygon class="cls-3" points="30.44 14.03 30.39 14.32 30.89 14.43 30.96 14.15 30.44 14.03"/><polygon class="cls-3" points="36.03 16.89 35.83 17.1 35.89 17.15 35.9 17.17 36.18 17.43 36.38 17.22 36.08 16.93 36.09 16.94 36.03 16.89"/><polygon class="cls-3" points="35.36 16.31 35.18 16.54 35.55 16.85 35.74 16.63 35.36 16.31"/><polygon class="cls-3" points="34.66 15.8 34.49 16.04 34.88 16.31 35.06 16.08 34.66 15.8"/><path class="cls-3" d="M37.76,18.86l-.24.17a4.53,4.53,0,0,1,.26.4l.25-.16C37.94,19.14,37.86,19,37.76,18.86Z"/><polygon class="cls-3" points="37.23 18.16 37.01 18.35 37.3 18.73 37.53 18.55 37.23 18.16"/><polygon class="cls-3" points="36.65 17.51 36.44 17.71 36.76 18.06 36.98 17.87 36.65 17.51"/><path class="cls-3" d="M39,21.17l-.27.12c.06.14.13.29.18.44l.27-.1C39.15,21.47,39.08,21.33,39,21.17Z"/><path class="cls-3" d="M38.65,20.38l-.26.13a2.44,2.44,0,0,1,.21.43l.27-.12A3,3,0,0,0,38.65,20.38Z"/><path class="cls-3" d="M38.24,19.61l-.25.15a3.3,3.3,0,0,1,.23.41l.26-.14C38.4,19.89,38.33,19.74,38.24,19.61Z"/><polygon class="cls-3" points="39.75 23.7 39.46 23.75 39.53 24.22 39.82 24.19 39.75 23.7"/><polygon class="cls-3" points="39.56 22.84 39.28 22.91 39.39 23.38 39.68 23.32 39.56 22.84"/><polygon class="cls-3" points="39.32 22 39.05 22.09 39.19 22.55 39.47 22.47 39.32 22"/><path class="cls-3" d="M39.92,26.33h-.29c0,.15,0,.31,0,.47l.29,0C39.9,26.65,39.92,26.49,39.92,26.33Z"/><polygon class="cls-3" points="39.93 25.45 39.64 25.46 39.64 25.94 39.93 25.94 39.93 25.45"/><polygon class="cls-3" points="39.87 24.58 39.58 24.61 39.62 25.08 39.91 25.07 39.87 24.58"/><path class="cls-3" d="M39.53,28.93l-.28-.07a4,4,0,0,1-.13.46l.28.08A3.62,3.62,0,0,0,39.53,28.93Z"/><path class="cls-3" d="M39.72,28.07,39.44,28c0,.16-.06.31-.1.47l.28.06A2.4,2.4,0,0,0,39.72,28.07Z"/><path class="cls-3" d="M39.85,27.21l-.28,0c0,.16,0,.31-.07.47l.28,0A2.65,2.65,0,0,0,39.85,27.21Z"/><polygon class="cls-3" points="38.59 31.39 38.33 31.25 38.11 31.68 38.36 31.82 38.59 31.39"/><polygon class="cls-3" points="38.96 30.59 38.69 30.48 38.51 30.92 38.77 31.04 38.96 30.59"/><polygon class="cls-3" points="39.27 29.77 39 29.68 38.84 30.13 39.11 30.24 39.27 29.77"/><polygon class="cls-3" points="33.07 14.88 32.95 15.14 33.08 15.2 33.2 15.26 33.33 15 33.2 14.94 33.07 14.88"/><polygon class="cls-3" points="34.02 15.64 34.17 15.39 34.42 15.54 34.27 15.79 34.02 15.64"/><polygon class="cls-3" points="23.83 3.12 23.87 2.83 23.56 2.78 23.52 3.07 23.83 3.12"/><polygon class="cls-3" points="24.66 3.27 24.73 2.99 24.25 2.89 24.2 3.17 24.66 3.27"/><polygon class="cls-3" points="9.16 35.41 8.99 35.64 9.39 35.92 9.55 35.68 9.16 35.41"/><polygon class="cls-3" points="8.5 34.89 8.31 35.11 8.69 35.41 8.86 35.19 8.5 34.89"/><polygon class="cls-3" points="34.89 35.32 35.07 35.55 34.67 35.83 34.51 35.6 34.89 35.32"/><polygon class="cls-3" points="35.55 34.79 35.74 35.01 35.37 35.32 35.19 35.09 35.55 34.79"/><path class="cls-2" d="M32.42,35.43a.36.36,0,0,1-.36-.36V23.87a5.7,5.7,0,0,0-5.67-5.69H17.23a5.7,5.7,0,0,0-5.68,5.69v11.2a.36.36,0,1,1-.71,0V23.87a6.4,6.4,0,0,1,6.39-6.4h9.16a6.4,6.4,0,0,1,6.39,6.4v11.2A.36.36,0,0,1,32.42,35.43Z"/><circle class="cls-4" cx="22" cy="22" r="21.5"/></g></g></svg>