<?xml version="1.0" encoding="UTF-8"?><svg xmlns="http://www.w3.org/2000/svg" viewBox="0 0 153.27 84.65"><defs><style>.d{stroke-linejoin:round;}.d,.e{fill:none;stroke:#2da9e0;stroke-linecap:round;stroke-width:2px;}.f{fill:#2da9e0;}.e{stroke-miterlimit:10;}</style></defs><g id="a"/><g id="b"><g id="c"><g><g><path class="f" d="M130.19,21.78C115.72,7.33,97.69,0,76.58,0h-.09C52.62,.03,20.06,16.2,.24,61.5c-.14,.32-.51,1.17,.09,1.78,.62,.63,1.41,.28,2.5-.19,1.88-.82,5.37-2.33,9.59-1.06,12.31,3.72,21.8,3.06,29-2.02,5.98-4.22,11.85-8.23,17.83-11.18,3.03,3.89,7.24,6.8,12.09,8.19-8.8,.65-15.18,2.57-15.18,4.84,0,1.03,1.31,1.99,3.56,2.79-2.25,.8-3.56,1.76-3.56,2.79,0,2.8,9.7,5.07,21.67,5.07s21.67-2.27,21.67-5.07c0-1.03-1.31-1.99-3.56-2.79,2.25-.8,3.56-1.76,3.56-2.79,0-2.27-6.38-4.2-15.18-4.84,4.49-1.29,8.43-3.88,11.39-7.33,3.09,1.87,6.25,4.24,9.42,7.09,5.65,5.09,13.93,3.1,17.22,2.01,8.9-2.94,18.38,1.98,24.05,4.93,2.54,1.32,4.11,2.14,5.22,2.14,.34,0,.63-.08,.9-.24,.28-.17,.74-.58,.74-1.46,0-3.93-6.02-25.34-23.08-42.38Zm-32.93,45.66c-1.65,1.2-8.28,3.07-19.41,3.07s-17.76-1.87-19.41-3.07c.73-.53,2.44-1.19,5.08-1.77,3.82,.79,8.84,1.27,14.33,1.27s10.51-.48,14.33-1.27c2.64,.57,4.35,1.24,5.08,1.77Zm-26.59-2.79c2.14-.18,4.53-.29,7.18-.29s5.04,.11,7.18,.29c-2.14,.18-4.53,.29-7.18,.29s-5.04-.11-7.18-.29Zm21.51-1.02c-3.82-.79-8.84-1.27-14.33-1.27s-10.51,.48-14.33,1.27c-2.64-.57-4.35-1.24-5.08-1.77,1.65-1.2,8.28-3.07,19.41-3.07s17.76,1.87,19.41,3.07c-.73,.53-2.44,1.19-5.08,1.77Zm-14.33-7.69c-11.89,0-21.55-9.67-21.55-21.55s9.67-21.55,21.55-21.55,21.55,9.67,21.55,21.55-9.67,21.55-21.55,21.55Zm69.49,6c-5.95-3.09-15.9-8.26-25.6-5.05-2.96,.98-10.38,2.79-15.26-1.6-3.18-2.86-6.38-5.28-9.5-7.2,2.78-3.87,4.42-8.6,4.42-13.71,0-12.99-10.57-23.55-23.55-23.55s-23.55,10.57-23.55,23.55c0,4.72,1.4,9.11,3.79,12.8-6,3-11.85,7-17.81,11.2-6.67,4.7-15.58,5.27-27.27,1.74-4.46-1.35-8.23-.02-10.35,.87C22.13,17.57,53.49,2.03,76.49,2h.09c20.56,0,38.12,7.13,52.19,21.19,16.11,16.09,22.12,35.92,22.48,40.6-.81-.24-2.45-1.08-3.92-1.85Z"/><path class="f" d="M150.74,69.09c-.2,.04-19.81,3.65-30.32,1.8-4.46-.79-13.61,.94-22.45,2.62-6.75,1.28-13.74,2.6-17.96,2.64-4.16,.05-10.02-1.44-16.25-3-7.25-1.82-14.74-3.7-19.84-3.17-12.77,1.33-40.9-4.88-41.18-4.94-.5-.11-1.01,.18-1.17,.67-.16,.49,.09,1.02,.56,1.23,1.1,.46,27.09,11.4,37.43,10.9,5.02-.24,13.59,1.72,21.87,3.62,7,1.61,13.61,3.12,17.65,3.19,.2,0,.4,0,.6,0,6.62,0,16.43-1.71,25.92-3.36,8.26-1.44,16.06-2.79,21.46-3.01,11.38-.46,23.82-7.05,24.34-7.33,.43-.23,.63-.75,.47-1.21s-.64-.74-1.13-.65Zm-23.76,7.2c-5.53,.22-13.4,1.59-21.72,3.04-9.69,1.69-19.7,3.42-26.15,3.32-3.83-.06-10.34-1.56-17.23-3.14-7.93-1.82-16.11-3.7-21.46-3.7-.33,0-.65,0-.95,.02-5.87,.27-17.54-3.51-26.13-6.67,9.48,1.69,22.81,3.62,30.79,2.8,4.75-.5,12.07,1.34,19.15,3.12,6.27,1.57,12.2,3.06,16.58,3.06,.06,0,.12,0,.18,0,4.41-.04,11.16-1.32,18.32-2.68,8.67-1.64,17.63-3.34,21.73-2.61,6.79,1.2,16.89,.25,23.72-.66-4.6,1.83-10.93,3.86-16.82,4.09Z"/></g><path class="e" d="M47.64,19.46c-3.93,1.32-7.64,3.26-10.96,5.74-3.44,2.57-6.42,5.69-9.39,8.8"/><path class="e" d="M58.66,22.36c.87,5.63,4.62,11.47,17.62,7.47,4.98-1.53,17.96-8.62,22.32-4.36"/><path class="e" d="M56.27,30.36c.95,4.78,5.09,9.74,19.41,6.34,5.49-1.3,19.79-7.33,24.59-3.71"/><path class="d" d="M56.27,40.82c2,3.47,4.97,6.28,18.97,2.88,5.37-1.3,19.34-7.33,24.03-3.71"/></g></g></g></svg>