<svg xmlns="http://www.w3.org/2000/svg" viewBox="0 0 34 34"><defs><style>.cls-1,.cls-2{fill:none;}.cls-2{stroke:#fff;stroke-linecap:round;stroke-linejoin:round;}.cls-3{fill:#fff;}</style></defs><g id="Layer_2" data-name="Layer 2"><g id="ASSETS"><rect class="cls-1" width="34" height="34"/><line class="cls-2" x1="21.08" y1="16.94" x2="26.91" y2="16.94"/><line class="cls-2" x1="23.99" y1="19.86" x2="23.99" y2="14.03"/><path class="cls-3" d="M9.88,13.15H8c-.69,0-.86.18-.86.86v6c0,.68.17.85.86.86H9.89v-7.7Z"/><path class="cls-3" d="M15.82,9.72h0a.58.58,0,0,0-1-.4h0c-1.11,1-2.21,2.1-3.29,3.17a2.11,2.11,0,0,1-1.08.61v7.82a2.11,2.11,0,0,1,1.08.61q1.62,1.61,3.29,3.17h0a.58.58,0,0,0,1-.4h0c0-2.43,0-4.85,0-7.28S15.84,12.15,15.82,9.72Z"/></g></g></svg>