<svg width="216" height="217" viewBox="0 0 216 217" fill="none" xmlns="http://www.w3.org/2000/svg">
<path d="M186.956 31.1247L204.763 13.3179C209.668 8.41288 206.19 0 199.264 0H152.532C150.451 0 148.489 0.832338 147.032 2.28899L46.7317 102.619C41.8266 107.524 33.4138 104.046 33.4138 97.1198V36.327C33.4138 34.2461 32.5814 32.2841 31.1247 30.8274L13.318 13.0206C8.41292 8.11559 0 11.5937 0 18.5202V177.771C0 182.081 3.4782 185.559 7.78869 185.559C9.86962 185.559 11.8316 184.727 13.2882 183.27L160.856 35.7028C162.312 34.2461 164.304 33.4137 166.355 33.4137H181.427C183.508 33.4137 185.47 32.5814 186.927 31.1247H186.956Z" fill="#29ABE2"/>
<path d="M68.9381 213.711L169.269 113.38C174.174 108.475 182.587 111.953 182.587 118.88V174.797C182.587 179.108 179.108 182.586 174.798 182.586H142.127C140.046 182.586 138.084 183.418 136.628 184.875L118.821 202.682C113.916 207.587 117.394 216 124.321 216H208.212C212.522 216 216 212.522 216 208.211V38.2589C216 31.3027 207.617 27.8245 202.682 32.7593L32.73 202.712C27.825 207.617 31.3031 216.03 38.2296 216.03H63.4089C65.4898 216.03 67.4518 215.197 68.9085 213.741L68.9381 213.711Z" fill="#29ABE2"/>
</svg>
