<svg xmlns="http://www.w3.org/2000/svg" viewBox="0 0 44 44"><defs><style>.cls-1{fill:none;stroke:#29aae1;stroke-miterlimit:10;}.cls-2{fill:#29aae1;}</style></defs><g id="Layer_2" data-name="Layer 2"><g id="MAIN_MENU_ASSETS" data-name="MAIN MENU ASSETS"><circle class="cls-1" cx="22" cy="22" r="21.5"/><rect class="cls-2" x="8.22" y="27.82" width="7.87" height="7.89" rx="1.08"/><rect class="cls-2" x="18.18" y="15.71" width="7.87" height="8.01" rx="1.08"/><rect class="cls-2" x="27.92" y="27.82" width="7.87" height="7.89" rx="1.08"/><polygon class="cls-2" points="8.66 23.16 8.66 25.78 12.11 22.69 15.57 25.78 15.57 23.16 12.11 20.06 8.66 23.16"/><polygon class="cls-2" points="8.66 19.43 8.66 22.06 12.11 18.96 15.57 22.06 15.57 19.43 12.11 16.33 8.66 19.43"/><polygon class="cls-2" points="28.66 23.16 28.66 25.78 32.11 22.69 35.57 25.78 35.57 23.16 32.11 20.06 28.66 23.16"/><polygon class="cls-2" points="28.66 19.43 28.66 22.06 32.11 18.96 35.57 22.06 35.57 19.43 32.11 16.33 28.66 19.43"/><polygon class="cls-2" points="18.66 11.16 18.66 13.78 22.11 10.69 25.57 13.78 25.57 11.16 22.11 8.06 18.66 11.16"/><polygon class="cls-2" points="18.66 7.43 18.66 10.06 22.11 6.96 25.57 10.06 25.57 7.43 22.11 4.33 18.66 7.43"/><rect class="cls-2" x="19.41" y="26.22" width="5.34" height="5.34" rx="2.67"/></g></g></svg>