<svg xmlns="http://www.w3.org/2000/svg" viewBox="0 0 44 44"><defs><style>.cls-1{fill:#29aae1;}</style></defs><g id="Layer_2" data-name="Layer 2"><g id="MAIN_MENU_ASSETS" data-name="MAIN MENU ASSETS"><path class="cls-1" d="M35.37,38.8c-.44-2.39-4.31-4.21-10.1-4.76-7-.65-15.31.8-16.66,4.28L7.67,38c1.55-4,10.21-5.62,17.7-4.91,6.34.6,10.45,2.68,11,5.57Z"/><path class="cls-1" d="M16.73,11.08a.49.49,0,0,1-.49-.47c-.16-2.95,1.14-5.27,3.48-6.2a.5.5,0,0,1,.37.93c-1.95.78-3,2.68-2.86,5.22a.49.49,0,0,1-.47.52Z"/><path class="cls-1" d="M13.51,22.88a.49.49,0,0,1-.46-.3.49.49,0,0,1,.26-.66c1.13-.49,2.5-1,4-1.53l1-.37a1.2,1.2,0,0,0,.55-.87,2.87,2.87,0,0,0-.3-2.24,7.62,7.62,0,0,1-2-3.79.52.52,0,0,1,.39-.6.49.49,0,0,1,.59.39,6.65,6.65,0,0,0,1.77,3.32,3.73,3.73,0,0,1,.54,3.15A2.1,2.1,0,0,1,18.62,21l-1,.37c-1.43.53-2.79,1-3.89,1.51A.79.79,0,0,1,13.51,22.88Z"/><path class="cls-1" d="M27.27,11.08h0a.49.49,0,0,1-.47-.52c.13-2.54-.91-4.44-2.85-5.22a.49.49,0,0,1-.28-.65.5.5,0,0,1,.65-.28c2.33.93,3.63,3.25,3.47,6.2A.49.49,0,0,1,27.27,11.08Z"/><path class="cls-1" d="M30.49,22.88a.51.51,0,0,1-.2,0c-1.1-.48-2.46-1-3.89-1.51l-1-.37a2.1,2.1,0,0,1-1.17-1.58,3.73,3.73,0,0,1,.53-3.14,6.7,6.7,0,0,0,1.78-3.33.49.49,0,0,1,.59-.39.52.52,0,0,1,.39.6,7.75,7.75,0,0,1-2,3.81,2.85,2.85,0,0,0-.29,2.22,1.2,1.2,0,0,0,.55.87l1,.37c1.45.53,2.82,1,4,1.53a.49.49,0,0,1,.26.66A.49.49,0,0,1,30.49,22.88Z"/><rect class="cls-1" x="26.5" y="25.64" width="0.65" height="0.65"/><rect class="cls-1" x="26.5" y="27.58" width="0.65" height="0.65"/><rect class="cls-1" x="26.5" y="29.52" width="0.65" height="0.65"/><rect class="cls-1" x="26.5" y="31.45" width="0.65" height="0.65"/><rect class="cls-1" x="33.12" y="27.78" width="0.5" height="0.76" transform="translate(-10.14 31.82) rotate(-44.97)"/><path class="cls-1" d="M23.34,38.72l-.53-.53.72-.73.54.54Zm1.45-1.44-.54-.54L25,36l.53.53Zm1.44-1.45-.53-.54.72-.72.54.54Zm1.45-1.44-.54-.54.72-.72.54.54Zm1.44-1.45-.53-.53.72-.73.54.54Zm1.45-1.44L30,31l.72-.72.54.54ZM32,30.05l-.53-.53.72-.73.54.54Z"/><polygon class="cls-1" points="22 40.06 21.38 39.44 21.91 38.91 22 38.99 22.09 38.91 22.62 39.44 22 40.06"/><path class="cls-1" d="M20.66,38.72,19.93,38l.54-.54.72.73Zm-1.45-1.44-.72-.72L19,36l.72.72Zm-1.44-1.45L17,35.11l.54-.54.72.73Zm-1.45-1.44-.72-.72.54-.54.72.72Zm-1.44-1.45-.73-.72.54-.54.72.73ZM13.43,31.5l-.72-.72.54-.54L14,31ZM12,30.05l-.72-.72.53-.54.72.73Z"/><rect class="cls-1" x="10.25" y="27.91" width="0.76" height="0.5" transform="translate(-16.8 15.77) rotate(-45)"/><rect class="cls-1" x="17.45" y="25.64" width="0.65" height="0.65"/><rect class="cls-1" x="17.45" y="27.58" width="0.65" height="0.65"/><rect class="cls-1" x="17.45" y="29.52" width="0.65" height="0.65"/><rect class="cls-1" x="17.45" y="31.45" width="0.65" height="0.65"/><rect class="cls-1" x="28.31" y="24.35" width="0.65" height="0.65"/><rect class="cls-1" x="28.31" y="26.28" width="0.65" height="0.65"/><rect class="cls-1" x="28.31" y="28.22" width="0.65" height="0.65"/><rect class="cls-1" x="28.31" y="30.16" width="0.65" height="0.65"/><rect class="cls-1" x="31.54" y="26.28" width="0.65" height="0.65"/><rect class="cls-1" x="30.25" y="28.22" width="0.65" height="0.65"/><rect class="cls-1" x="12.16" y="26.28" width="0.65" height="0.65"/><rect class="cls-1" x="13.45" y="28.22" width="0.65" height="0.65"/><rect class="cls-1" x="15.39" y="24.35" width="0.65" height="0.65"/><rect class="cls-1" x="15.39" y="26.28" width="0.65" height="0.65"/><rect class="cls-1" x="15.39" y="28.22" width="0.65" height="0.65"/><rect class="cls-1" x="15.39" y="30.16" width="0.65" height="0.65"/><rect class="cls-1" x="19.42" y="23.05" width="0.65" height="0.65"/><rect class="cls-1" x="19.42" y="24.99" width="0.65" height="0.65"/><rect class="cls-1" x="19.42" y="26.93" width="0.65" height="0.65"/><rect class="cls-1" x="23.94" y="23.05" width="0.65" height="0.65"/><rect class="cls-1" x="23.94" y="24.99" width="0.65" height="0.65"/><rect class="cls-1" x="23.94" y="26.93" width="0.65" height="0.65"/><rect class="cls-1" x="21.68" y="16.59" width="0.65" height="0.65"/><rect class="cls-1" x="21.68" y="14.65" width="0.65" height="0.65"/><rect class="cls-1" x="21.68" y="18.53" width="0.65" height="0.65"/><rect class="cls-1" x="21.68" y="20.47" width="0.65" height="0.65"/><rect class="cls-1" x="21.68" y="22.41" width="0.65" height="0.65"/><rect class="cls-1" x="21.68" y="23.7" width="0.65" height="0.65"/><rect class="cls-1" x="21.68" y="25.64" width="0.65" height="0.65"/><rect class="cls-1" x="21.68" y="27.58" width="0.65" height="0.65"/><rect class="cls-1" x="21.68" y="29.52" width="0.65" height="0.65"/><rect class="cls-1" x="21.68" y="31.45" width="0.65" height="0.65"/><rect class="cls-1" x="21.68" y="33.39" width="0.65" height="0.65"/><rect class="cls-1" x="21.68" y="35.33" width="0.65" height="0.65"/><rect class="cls-1" x="21.68" y="37.27" width="0.65" height="0.65"/><path class="cls-1" d="M22,44a22,22,0,1,1,13.83-4.9A21.64,21.64,0,0,1,22,44ZM22,1a21,21,0,1,0,0,42,20.68,20.68,0,0,0,13.2-4.68A21,21,0,0,0,22,1Z"/></g></g></svg>