<?xml version="1.0" encoding="utf-8"?>
<!-- Generator: Adobe Illustrator 26.0.1, SVG Export Plug-In . SVG Version: 6.00 Build 0)  -->
<svg version="1.1" id="Layer_1" xmlns="http://www.w3.org/2000/svg" xmlns:xlink="http://www.w3.org/1999/xlink" x="0px" y="0px"
	 viewBox="0 0 51 51" style="enable-background:new 0 0 51 51;" xml:space="preserve">
<style type="text/css">
	.st0{fill:none;}
	.st1{fill:none;stroke:#2FA8DF;stroke-width:0.75;stroke-linecap:round;stroke-linejoin:round;stroke-miterlimit:10;}
	
		.st2{fill:none;stroke:#2FA8DF;stroke-width:0.5;stroke-linecap:round;stroke-linejoin:round;stroke-miterlimit:10;stroke-dasharray:1,1;}
</style>
<g>
	<rect class="st0" width="51" height="51"/>
	<g>
		<path class="st1" d="M23,48.3V32.9c-0.4,0-0.7,0-1.1,0c-1.5-0.1-2.7-0.7-3.4-2c-1.3-2.3,0.1-5,2.7-5.6c0.6-0.1,1.2-0.1,1.8-0.2
			v-0.9"/>
		<path class="st1" d="M41.7,20.1c-0.2,0.4-0.5,0.8-0.5,1.2c0.1,0.8,0.5,1.9,1.5,3c1.3,1.4,3.2,3.1,4,4c0.3,0.4,0.2,1.1-0.2,1.4
			l-3.2,1.9l0.8,1.7c0.1,0.2,0.1,0.4-0.1,0.6l-0.7,0.8l0.4,0.9c0.1,0.3,0,0.6-0.3,0.7c-0.8,0.3-2,0.9-1.6,2c0.2,0.6,0.4,1.6,0.6,2.5
			c0.2,1.4-1,2.6-2.4,2.5l-8.2-0.9c-0.6,0-1.2,0.3-1.5,0.8c-0.4,0.8-0.9,2-0.5,3.2"/>
		<path class="st2" d="M9.8,46.3c0,0,3.5-4.3-2.4-16.4c-2-2.8-3.2-6.1-3.4-9.7h5.8c0.8,0,1-0.2,1-1c0-0.5,0-1.1,0.1-1.7
			c0.2-1.6,1.5-2.5,3-2.1c1.1,0.3,1.6,1.2,1.8,2.2c0.1,0.6,0.1,1.2,0.1,1.8c0,0.7,0.3,0.9,0.9,0.9h1.6"/>
		<path class="st2" d="M23.9,14.3v-1c0-0.8-0.3-1-1-1c-0.5,0-1.1,0-1.7-0.1c-1.6-0.2-2.6-1.5-2.2-3c0.2-1,1.1-1.7,2.2-1.8
			c0.5-0.1,1.1-0.1,1.6-0.1c0.8,0,1-0.2,1-1V0.4c9.7,0.4,17.3,8.4,17.9,18.2l0,0h-5.2c0-0.4,0-0.8,0-1.2c-0.1-1.9-1.5-3.4-3.2-3.7
			c-2.1-0.3-4,1-4.4,3.2c-0.1,0.5-0.2,1.1-0.2,1.7h-0.9"/>
		<path class="st1" d="M4.1,18.6v-0.1c0-10,8.1-18.1,18.1-18.1"/>
		<ellipse class="st1" cx="23" cy="49.5" rx="1.1" ry="1.1"/>
		<ellipse class="st1" cx="23" cy="19.3" rx="1.1" ry="1.1"/>
		<ellipse class="st1" cx="23" cy="19.3" rx="3.5" ry="3.5"/>
	</g>
</g>
</svg>
