<svg xmlns="http://www.w3.org/2000/svg" xmlns:xlink="http://www.w3.org/1999/xlink" viewBox="0 0 37.91 37.91"><defs><style>.cls-1{isolation:isolate;}.cls-2{fill:#292c31;}.cls-3{fill:#010642;}.cls-4{mix-blend-mode:multiply;fill:url(#radial-gradient);}.cls-5{fill:#fff;}.cls-6{fill:none;stroke:#fff;stroke-linecap:round;stroke-linejoin:round;}</style><radialGradient id="radial-gradient" cx="19.21" cy="24.38" r="37.1" gradientUnits="userSpaceOnUse"><stop offset="0" stop-color="#fff" stop-opacity="0"/><stop offset="0.13" stop-color="#eaebed" stop-opacity="0.15"/><stop offset="0.39" stop-color="#b5b6bd" stop-opacity="0.54"/><stop offset="0.68" stop-color="#767785"/></radialGradient></defs><g class="cls-1"><g id="Layer_2" data-name="Layer 2"><g id="Layer_1-2" data-name="Layer 1"><circle class="cls-2" cx="18.96" cy="18.96" r="18.96" transform="matrix(0.83, -0.56, 0.56, 0.83, -7.38, 13.95)"/><circle class="cls-3" cx="18.96" cy="18.96" r="18.96" transform="matrix(0.83, -0.56, 0.56, 0.83, -7.38, 13.95)"/><path class="cls-4" d="M4.43,19.53a14.54,14.54,0,1,1,15.1,13.95A14.54,14.54,0,0,1,4.43,19.53Z"/><path class="cls-5" d="M13.27,15.11c-.64,0-1.28,0-1.92,0s-.86.17-.86.85c0,1,0,2,0,3s0,2,0,3c0,.68.16.85.86.86s1.28,0,1.92,0h0v-7.7Z"/><path class="cls-5" d="M19.21,11.69v0a.58.58,0,0,0-1-.4h0C17.14,12.32,16,13.37,15,14.44a2.18,2.18,0,0,1-1.09.61v7.82a2.18,2.18,0,0,1,1.09.61c1.07,1.07,2.18,2.13,3.29,3.17h0a.58.58,0,0,0,1-.4h0c0-2.43,0-4.85,0-7.28S19.23,14.11,19.21,11.69Z"/><path class="cls-5" d="M27.43,18.69a11.65,11.65,0,0,1-2.63,7.4,1.12,1.12,0,0,1-1.06.54,1,1,0,0,1-.53-1.6,14,14,0,0,0,1.35-2.09,9.48,9.48,0,0,0-1-10c-.53-.74-.58-1.24-.07-1.63s1-.22,1.57.48A11.47,11.47,0,0,1,27.43,18.69Z"/><path class="cls-5" d="M23.86,19a7.58,7.58,0,0,1-1.68,4.72,1,1,0,0,1-1.05.41.8.8,0,0,1-.67-.78,1.8,1.8,0,0,1,.33-.91,6,6,0,0,0,.45-6.54,5.47,5.47,0,0,0-.41-.65.94.94,0,0,1,.18-1.4.92.92,0,0,1,1.37.32A7.79,7.79,0,0,1,23.86,19Z"/><circle class="cls-6" cx="18.96" cy="18.96" r="12.5"/></g></g></g></svg>