<svg xmlns="http://www.w3.org/2000/svg" viewBox="0 0 80.06 115.42"><defs><style>.cls-1{fill:#2da9e0;}</style></defs><g id="Layer_2" data-name="Layer 2"><g id="ASSETS"><path class="cls-1" d="M40,93.59h0a3.58,3.58,0,0,1-2.58-1.08h0a3.75,3.75,0,0,1,0-5.22A3.59,3.59,0,0,1,40,86.2h0a3.62,3.62,0,0,1,2.59,1.09,3.75,3.75,0,0,1,0,5.22A3.61,3.61,0,0,1,40,93.59Zm0-5.54h0a1.75,1.75,0,0,0-1.26.54,1.88,1.88,0,0,0,0,2.62h0a1.78,1.78,0,0,0,1.26.53h0a1.79,1.79,0,0,0,1.27-.53,1.9,1.9,0,0,0,0-2.62A1.76,1.76,0,0,0,40,88.05Z"/><path class="cls-1" d="M3.64,53.76h0a3.58,3.58,0,0,1-2.58-1.09,3.74,3.74,0,0,1,0-5.21,3.54,3.54,0,0,1,2.58-1.09h0a3.58,3.58,0,0,1,2.58,1.08,3.75,3.75,0,0,1,0,5.22A3.55,3.55,0,0,1,3.64,53.76Zm0-5.54h0a1.76,1.76,0,0,0-1.26.53,1.89,1.89,0,0,0,0,2.63,1.76,1.76,0,0,0,1.26.53h0a1.76,1.76,0,0,0,1.26-.53,1.89,1.89,0,0,0,0-2.63A1.75,1.75,0,0,0,3.64,48.22Z"/><path class="cls-1" d="M76.42,53.76h0a3.59,3.59,0,0,1-2.58-1.09,3.74,3.74,0,0,1,0-5.21,3.55,3.55,0,0,1,2.58-1.09h0A3.61,3.61,0,0,1,79,47.45a3.75,3.75,0,0,1,0,5.22A3.58,3.58,0,0,1,76.42,53.76Zm0-5.54h0a1.78,1.78,0,0,0-1.26.53,1.89,1.89,0,0,0,0,2.63h0a1.78,1.78,0,0,0,1.26.53h0a1.75,1.75,0,0,0,1.26-.53,1.89,1.89,0,0,0,0-2.63A1.75,1.75,0,0,0,76.42,48.22Z"/><path class="cls-1" d="M15.35,25.91a.92.92,0,0,1-.92-.92V24A24.06,24.06,0,0,1,38.51,0h3.3A24.18,24.18,0,0,1,65.36,19a.92.92,0,0,1-.71,1.1.91.91,0,0,1-1.1-.71A22.33,22.33,0,0,0,41.81,1.85h-3.3A22.21,22.21,0,0,0,16.28,24v1A.93.93,0,0,1,15.35,25.91Z"/><path class="cls-1" d="M41.81,77.11h-3.3a24,24,0,0,1-12.46-3.46,28.81,28.81,0,0,1-8.14-8.31,23.32,23.32,0,0,1-3.48-12.22V42.63a.93.93,0,1,1,1.85,0V53.12a21.43,21.43,0,0,0,3.2,11.24,27,27,0,0,0,7.58,7.74,22.13,22.13,0,0,0,11.45,3.16h3.3A22.14,22.14,0,0,0,53.3,72.07a27,27,0,0,0,7.55-7.72A21.55,21.55,0,0,0,64,53.12V48.63a.93.93,0,0,1,1.85,0v4.49a23.37,23.37,0,0,1-3.47,12.21,28.77,28.77,0,0,1-8.11,8.29A24,24,0,0,1,41.81,77.11Z"/><path class="cls-1" d="M37.19,89.88h-.07A37.38,37.38,0,0,1,2.64,52.93a.93.93,0,1,1,1.85,0A35.51,35.51,0,0,0,37.26,88a.93.93,0,0,1-.07,1.85Z"/><path class="cls-1" d="M42.52,89.9a.93.93,0,0,1-.06-1.85,35.32,35.32,0,0,0,33-35.12.93.93,0,1,1,1.85,0,37.18,37.18,0,0,1-34.71,37Z"/><path class="cls-1" d="M39.87,115a.92.92,0,0,1-.92-.92V92.94a.93.93,0,0,1,1.85,0V114.1A.93.93,0,0,1,39.87,115Z"/><path class="cls-1" d="M54,115.42H25.79a.93.93,0,1,1,0-1.86H54a.93.93,0,1,1,0,1.86Z"/><path class="cls-1" d="M8.16,41.09a.92.92,0,0,1-.92-.93V27.66a.93.93,0,1,1,1.85,0v12.5A.93.93,0,0,1,8.16,41.09Z"/><path class="cls-1" d="M29.56,52.27a.93.93,0,0,1-.93-.93V16.27a.93.93,0,0,1,1.86,0V51.34A.93.93,0,0,1,29.56,52.27Z"/><path class="cls-1" d="M51,44.52a.93.93,0,0,1-.92-.93V24.23a.93.93,0,1,1,1.85,0V43.59A.93.93,0,0,1,51,44.52Z"/><path class="cls-1" d="M36.69,44.94a.92.92,0,0,1-.92-.92V23.81a.93.93,0,1,1,1.85,0V44A.93.93,0,0,1,36.69,44.94Z"/><path class="cls-1" d="M22.43,38.36a.93.93,0,0,1-.93-.93V30.18a.93.93,0,1,1,1.85,0v7.25A.93.93,0,0,1,22.43,38.36Z"/><path class="cls-1" d="M72.35,38.81a.93.93,0,0,1-.92-.93V29.94a.93.93,0,1,1,1.85,0v7.94A.93.93,0,0,1,72.35,38.81Z"/><path class="cls-1" d="M58.09,38.36a.93.93,0,0,1-.93-.93V30.18a.93.93,0,1,1,1.85,0v7.25A.93.93,0,0,1,58.09,38.36Z"/><path class="cls-1" d="M15.29,36.52a.93.93,0,0,1-.92-.93V32a.93.93,0,1,1,1.85,0v3.57A.93.93,0,0,1,15.29,36.52Z"/><path class="cls-1" d="M65.22,42.66a.93.93,0,0,1-.93-.93V26.09a.93.93,0,1,1,1.85,0V41.73A.93.93,0,0,1,65.22,42.66Z"/><path class="cls-1" d="M43.82,38.36a.93.93,0,0,1-.92-.93V30.18a.93.93,0,1,1,1.85,0v7.25A.93.93,0,0,1,43.82,38.36Z"/></g></g></svg>